  <svg
                width="112"
                height="41"
                viewBox="0 0 112 41"
                fill="none"
                xmlns="http://www.w3.org/2000/svg"
              >
                <path
                  d="M58.785 17.8076V17.982H73.2674V28.1727H58.785V41H45V18.0936C45 6.47295 52.5935 0 65.8518 0C70.6414 0 75.0252 0.913746 78 2.46223L74.0289 12.6529C71.7516 11.4532 69.1255 10.9371 67.019 10.9371C61.8238 10.9371 58.785 13.0575 58.785 17.8076Z"
                  fill="#d64c00" 
                />
                <path
                  d="M93.3644 17.8076V17.982H107.405V28.1727H93.3644V41H80V18.0936C80 6.47295 87.3618 0 100.216 0C104.866 0 109.109 0.913746 112 2.46223L108.15 12.6529C105.942 11.4532 103.396 10.9371 101.354 10.9371C96.3174 10.9371 93.3713 13.0575 93.3713 17.8076H93.3644Z"
                  fill= "#d64c00"
                />
                <path
                  d="M19.9965 0C8.17235 0 0 7.10192 0 19.6384V41H13.4487V32.9284H26.3182V41H40V19.6384C40 7.10192 31.8277 0 19.9965 0ZM20.0247 23.9359C17.1217 23.9359 14.7766 21.4872 14.7766 18.7734C14.7766 15.2642 20.0247 9.18087 20.0247 9.18087C20.0247 9.18087 25.2728 15.041 25.2728 18.7734C25.2728 21.4872 22.9207 23.9359 20.0247 23.9359Z"
                  fill="#d64c00" 
                />
              </svg>