<svg width="397" height="423" fill="none" xmlns="http://www.w3.org/2000/svg"><mask id="a" style="mask-type:alpha" maskUnits="userSpaceOnUse" x="0" y="0" width="397" height="423"><path transform="matrix(-1 0 0 1 396.191 0)" fill="#F2F2F2" d="M0 0h396.19v422.689H0z"/></mask><g opacity=".97" fill="#DB6220" mask="url(#a)"><path d="M51.109-23.483a1.151 1.151 0 0 0-.915.447L7.637 32.254a1.15 1.15 0 0 0-.101 1.231c.202.39.61.622 1.088.603l42.142-2.97a1.14 1.14 0 0 0 1.057-1.13l.416-52.343c.004-.479-.311-.938-.766-1.079-.113-.046-.227-.047-.364-.049ZM10.99 31.626 49.934-18.98l-.38 47.897-38.564 2.709Z"/><path d="m51.11-23.482-90.335-.728a1.096 1.096 0 0 0-1.03.652c-.186.408-.121.888.172 1.21L7.672 33.67c.225.253.566.416.885.396.341.003.662-.176.869-.447l42.558-55.29c.276-.34.302-.796.123-1.185-.156-.39-.565-.621-.997-.625Zm-87.848 1.576 85.53.682L8.488 31.147l-45.227-53.053Z"/><path d="M51.106-23.482a1.067 1.067 0 0 0-.8.334 1.16 1.16 0 0 0-.347.795l-.417 52.342c-.004.524.334.96.834 1.102a1.12 1.12 0 0 0 1.28-.512l30.526-51.894c.208-.34.212-.773.01-1.14a1.15 1.15 0 0 0-.975-.58l-30.11-.447c.022 0 .022 0 0 0Zm.748 49.23.373-46.94 26.99.395-27.363 46.545ZM-39.205-24.21a.774.774 0 0 0-.228.02 1.15 1.15 0 0 0-.872.767l-11.574 34.75c-.187.59.104 1.231.694 1.442l59.33 21.27c.476.164 1.024.01 1.324-.42.3-.431.258-1.001-.08-1.392l-47.755-56.019a1.047 1.047 0 0 0-.84-.418Zm-10.143 35.196 10.594-31.795 43.67 51.237-54.264-19.442Z"/><path d="M-50.782 10.539a1.072 1.072 0 0 0-.73.266 1.14 1.14 0 0 0-.396 1.045l10.745 69.617a1.144 1.144 0 0 0 1.93.657l48.585-48.37c.276-.271.393-.68.305-1.046a1.155 1.155 0 0 0-.723-.828l-59.329-21.247a.867.867 0 0 0-.386-.094Zm11.53 68.393-10.117-65.53L6.462 33.407l-45.715 45.525Z"/><path d="M50.692 28.698h-.091l-42.142 2.97c-.319.02-.64.2-.823.449a1.065 1.065 0 0 0-.19.932l16.304 75.165c.11.503.54.872 1.04.899.616.029.982-.287 1.146-.787l25.837-78.112a1.15 1.15 0 0 0-.174-1.05 1.124 1.124 0 0 0-.907-.466Zm-40.747 5.15L49.078 31.1l-23.993 72.545-15.14-69.796Z"/><path d="M24.857 106.813a1.078 1.078 0 0 0-.685.221l-35.216 25.7c-.39.292-.553.792-.42 1.273.156.457.586.78 1.064.785l80.402.907a1.12 1.12 0 0 0 1.1-.834c.14-.5-.083-1.026-.514-1.281L25.38 106.978a.891.891 0 0 0-.523-.165Zm-31.754 25.733 31.825-23.224 40.879 24.056-72.704-.832Z"/><path d="m50.691 28.702-.114-.001a1.132 1.132 0 0 0-.962.766L23.777 107.58a1.15 1.15 0 0 0 1.56 1.405l55.534-25.641c.298-.134.505-.383.598-.679a1.16 1.16 0 0 0-.084-.912L51.69 29.28a1.188 1.188 0 0 0-.998-.58ZM26.752 105.83l24.204-73.181 27.81 49.17-52.014 24.011Z"/><path d="M-40.034 80.042a1.174 1.174 0 0 0-.869.38 1.131 1.131 0 0 0-.124 1.32l29.696 52.472c.157.275.43.483.747.554.319.072.661.007.913-.196l35.216-25.699c.343-.248.506-.657.464-1.067a1.128 1.128 0 0 0-.7-.919L-39.6 80.092a2.79 2.79 0 0 0-.433-.05Zm30.042 51.928-27.427-48.483 59.962 24.764-32.535 23.719Z"/><path d="M80.389 81.191a1.136 1.136 0 0 0-.48.11l-55.533 25.641a1.163 1.163 0 0 0-.669.974c-.026.433.199.823.562 1.031l45.209 26.607c.317.185.705.212 1.047.055.343-.156.573-.45.645-.814l10.324-52.248c.094-.432-.084-.844-.424-1.121-.18-.162-.43-.232-.681-.235Zm-53.084 26.896L78.838 84.3l-9.588 48.47-41.945-24.683Z"/><path d="M8.552 31.669a1.153 1.153 0 0 0-.823.334l-48.585 48.37a1.081 1.081 0 0 0-.304 1.023c.065.366.336.687.677.827l64.888 26.795c.386.163.842.099 1.163-.171.322-.271.462-.703.374-1.114L9.638 32.568a1.115 1.115 0 0 0-.79-.85c-.091-.047-.182-.048-.296-.05Zm-46.586 49.096L7.864 35.082l15.403 71.007-61.301-25.324ZM141.443-22.613l-60.222-.577a1.146 1.146 0 0 0-.961.516 1.163 1.163 0 0 0-.1 1.093l36.833 83.159c.201.435.654.713 1.11.671.479-.04.892-.356 1.009-.834l23.39-82.582a1.212 1.212 0 0 0-.174-1.004 1.124 1.124 0 0 0-.885-.442Zm-58.464 1.72 56.943.545-22.102 78.103-34.84-78.648Z"/><path d="M118.052 59.946a1.024 1.024 0 0 0-.57.154L79.819 81.33a1.106 1.106 0 0 0-.534 1.272c.133.503.585.85 1.086.854l60.223.577c.456.004.89-.265 1.053-.697a1.125 1.125 0 0 0-.263-1.256l-22.56-21.807a1.085 1.085 0 0 0-.772-.327ZM84.649 81.24l33.223-18.719 19.893 19.228-53.116-.509Z"/><path d="m141.44-22.612-.137-.001c-.456.064-.846.38-.963.811L116.95 60.78c-.117.455.038.913.4 1.213.363.277.863.327 1.275.103l53.064-30.088c.549-.314.736-.996.422-1.546L142.415-22.01a1.083 1.083 0 0 0-.975-.602Zm-21.535 81.346 21.867-77.284 27.787 49.124-49.654 28.16Z"/><path d="M50.695 28.705a1.19 1.19 0 0 0-.846.357 1.133 1.133 0 0 0-.147 1.343l29.696 52.472c.314.55 1.019.74 1.545.425l37.663-21.23a1.14 1.14 0 0 0 .578-1.043 1.137 1.137 0 0 0-.653-.987L51.172 28.824a1.224 1.224 0 0 0-.477-.119ZM80.827 80.77 53.445 32.356l62.116 28.82L80.827 80.77Z"/><path d="M171.139 29.86a1.027 1.027 0 0 0-.571.154l-53.063 30.088a1.15 1.15 0 0 0-.576.838c-.049.365.085.708.334.961l22.56 21.807c.248.23.612.37.954.305a1.1 1.1 0 0 0 .824-.539l30.527-51.895a1.138 1.138 0 0 0-.172-1.37c-.249-.23-.521-.346-.817-.35Zm-51.207 31.474 48.053-27.24-27.64 46.997-20.413-19.757Z"/><path d="M81.22-23.192a1.1 1.1 0 0 0-.984.56L49.71 29.264c-.162.272-.21.614-.098.911.088.298.314.55.61.69l67.358 31.241c.431.21.933.1 1.278-.215.344-.34.439-.84.238-1.275l-36.833-83.16a1.137 1.137 0 0 0-.974-.67c-.023.022-.046.022-.069.022ZM52.306 29.334l28.772-48.902 34.706 78.35-63.478-29.448Zm88.307 52.433-60.223-.576a1.134 1.134 0 0 0-1.053.696c-.186.432-.099.911.24 1.234l59.743 60.989c.316.322.816.441 1.25.263.435-.178.711-.586.715-1.042l.48-60.413a1.179 1.179 0 0 0-1.152-1.15Zm-57.485 1.73 56.328.54-.45 56.536-55.878-57.076Z"/><path d="M140.133 142.183a1.014 1.014 0 0 0-.663.222l-60.572 43.376a1.152 1.152 0 0 0 .667 2.082l60.223.576a1.127 1.127 0 0 0 1.148-1.129l.349-43.953a1.192 1.192 0 0 0-.607-1.032c-.204-.093-.363-.14-.545-.142Zm-57.065 43.41 55.899-40.047-.323 40.58-55.576-.533Z"/><path d="M140.612 81.77c-.091 0-.205.021-.296.043a1.14 1.14 0 0 0-.852 1.087l-.48 60.412c-.003.365.154.686.448.917a1.2 1.2 0 0 0 1.001.192l30.176-7.942c.343-.088.618-.336.757-.654.14-.318.12-.705-.06-1.004l-29.696-52.47a1.196 1.196 0 0 0-.998-.58Zm.661 60.082.435-54.668 26.866 47.497-27.301 7.171Z"/><path d="M70.066 133.419a1.189 1.189 0 0 0-.846.357 1.119 1.119 0 0 0-.28.977l9.493 52.141c.066.389.336.71.7.851.363.14.773.098 1.094-.127l60.572-43.376c.39-.27.553-.747.443-1.204a1.121 1.121 0 0 0-.973-.853l-70.066-8.765-.137-.001Zm10.298 51.328-8.905-48.852 65.629 8.197-56.724 40.655Z"/><path d="M170.308 134.242a1.314 1.314 0 0 0-.296.043l-30.177 7.941a1.14 1.14 0 0 0-.851 1.086l-.35 43.954c-.004.524.334.96.834 1.102.5.141 1.026-.081 1.28-.512l30.526-51.895c.231-.408.212-.91-.081-1.277a1.122 1.122 0 0 0-.885-.442Zm-29.054 9.958 26.662-7.017-26.971 45.864.309-38.847Z"/><path d="M80.387 81.192a1.748 1.748 0 0 0-.342.042c-.41.11-.71.45-.781.859L68.94 134.341c-.071.318.017.638.198.891.18.252.475.415.77.463l70.067 8.765c.5.073.958-.196 1.166-.628a1.15 1.15 0 0 0-.217-1.301l-59.742-60.99a1.07 1.07 0 0 0-.795-.35Zm-8.981 52.397 9.66-48.925 55.946 57.123-65.606-8.198Zm99.73-103.736a1.153 1.153 0 0 0-.984.538c-.208.362-.234.795-.009 1.162l29.696 52.471c.18.299.474.53.838.579a1.15 1.15 0 0 0 .959-.31l48.538-48.234a1.13 1.13 0 0 0 .26-1.206 1.17 1.17 0 0 0-.996-.74l-78.234-4.26h-.068Zm29.929 51.767-27.921-49.377 73.589 4.01-45.668 45.367Z"/><path d="M200.808 82.348a.847.847 0 0 0-.25.02 1.17 1.17 0 0 0-.734.54l-30.526 51.895c-.231.386-.212.842.036 1.209.248.367.679.554 1.112.489l87.978-12.175c.456-.065.846-.403.94-.858.118-.455-.083-.935-.468-1.213l-57.451-39.741a1.212 1.212 0 0 0-.637-.166Zm-28.337 51.574 28.703-48.812 54.053 37.361-82.756 11.451Z"/><path d="M249.373 34.114a1.151 1.151 0 0 0-.822.334l-48.538 48.234a1.17 1.17 0 0 0-.261 1.228 1.14 1.14 0 0 0 1.043.717l60.222.577a1.12 1.12 0 0 0 .892-.425c.207-.272.301-.635.213-.978L250.46 34.99c-.088-.412-.404-.711-.791-.83a1.327 1.327 0 0 0-.296-.047Zm-45.827 48.26 45.163-44.87 10.869 45.406-56.032-.537Z"/><path d="m200.811 82.347-60.2-.576c-.41-.004-.776.22-.984.56-.208.34-.211.796-.009 1.14l29.696 52.471c.405.711 1.566.722 1.982.019l30.526-51.894c.208-.34.211-.796.009-1.14a1.204 1.204 0 0 0-1.02-.58Zm-58.259 1.722 56.259.539-28.518 48.494-27.741-49.033Z"/><path d="m261.034 82.926-60.222-.576a1.147 1.147 0 0 0-1.1.787c-.14.478.038 1.004.445 1.281l57.451 39.742a1.148 1.148 0 0 0 1.784-.872l2.749-39.165a1.133 1.133 0 0 0-.29-.847 1.083 1.083 0 0 0-.817-.35Zm-56.528 1.74 55.303.529-2.541 35.952-52.762-36.482Z"/><path d="M171.137 29.856c-.41-.004-.777.22-.984.56l-30.527 51.895c-.207.34-.211.796-.009 1.14.203.344.565.576.975.58l60.223.576a1.136 1.136 0 0 0 .993-1.7l-29.697-52.472a1.179 1.179 0 0 0-.974-.579Zm-28.568 51.936 28.517-48.494 27.742 49.033-56.259-.539ZM322.084-20.885l-60.223-.577c-.41-.004-.776.22-.984.56-.208.34-.211.797-.009 1.14l29.696 52.472c.405.71 1.566.722 1.982.019l30.526-51.895c.208-.34.211-.796.009-1.14a1.166 1.166 0 0 0-.997-.58Zm-58.26 1.722 56.26.539-28.518 48.494-27.742-49.033Z"/><path d="M291.557 31.008c-.41-.004-.777.22-.984.56l-30.527 51.896c-.207.34-.211.796-.009 1.14.202.343.565.575.975.579l60.223.576a1.136 1.136 0 0 0 .993-1.7l-29.697-52.471a1.149 1.149 0 0 0-.974-.58Zm-28.545 51.937 28.517-48.494 27.742 49.032-56.259-.538Z"/><path d="M322.086-20.887c-.41-.004-.776.22-.984.56l-30.526 51.895c-.208.34-.212.796-.01 1.14.203.344.565.575.975.58l60.223.576c.41.004.776-.22.984-.56.208-.34.211-.797.009-1.14l-29.696-52.472a1.13 1.13 0 0 0-.975-.58Zm-28.568 51.913 28.518-48.494 27.742 49.033-56.26-.539Z"/><path d="m291.56 31.008-.091-.001-42.188 3.107c-.342.02-.64.2-.847.47a1.234 1.234 0 0 0-.189.934l11.661 48.81c.111.457.472.803.927.875.455.073.913-.15 1.144-.559l30.526-51.894a1.166 1.166 0 0 0-.013-1.186 1.058 1.058 0 0 0-.93-.556Zm-40.793 5.286 38.678-2.844-27.986 47.587-10.692-44.743Z"/><path d="m351.759 31.582-60.222-.577c-.41-.004-.776.22-.984.56a1.13 1.13 0 0 0-.009 1.14l29.696 52.472c.404.71 1.566.721 1.982.019L352.748 33.3c.208-.34.211-.796.009-1.14a1.189 1.189 0 0 0-.998-.58ZM293.5 33.304l56.26.538-28.518 48.495L293.5 33.303Z"/><path d="M261.862-21.466c-.069 0-.114 0-.183.021a1.14 1.14 0 0 0-.941.88l-12.492 55.579c-.071.341.017.73.243 1.005.225.276.589.44.953.397l42.189-3.107c.387-.019.73-.244.916-.607.185-.34.188-.75-.015-1.094l-29.696-52.471a1.081 1.081 0 0 0-.974-.603Zm-11.057 55.479 11.524-51.21 27.36 48.344-38.884 2.866Zm70.446 49.491-60.222-.577c-.41-.004-.776.22-.984.56-.208.34-.211.796-.009 1.14l29.696 52.472c.405.71 1.566.721 1.982.019l30.526-51.895c.208-.34.211-.796.009-1.14a1.167 1.167 0 0 0-.998-.58Zm-58.259 1.722 56.26.538-28.518 48.494-27.742-49.032Z"/><path d="M290.726 135.399c-.41-.004-.776.22-.983.56l-30.527 51.895c-.208.34-.211.796-.009 1.14.202.344.565.575.975.579l60.223.577c.41.004.776-.221.983-.561.208-.34.212-.796.01-1.139l-29.697-52.472a1.105 1.105 0 0 0-.975-.579Zm-28.544 51.914 28.517-48.494 27.742 49.032-56.259-.538Z"/><path d="M321.252 83.502a1.15 1.15 0 0 0-.984.561l-30.526 51.895c-.208.34-.212.796-.01 1.14.203.343.565.575.975.579l60.223.576c.41.004.776-.22.984-.56.208-.34.211-.796.009-1.14l-29.696-52.471a1.13 1.13 0 0 0-.975-.58Zm-28.568 51.914 28.518-48.494 27.742 49.033-56.26-.539Z"/><path d="M258.281 122.071a1.176 1.176 0 0 0-.662.199 1.117 1.117 0 0 0-.486.975l1.918 65.224c.019.502.357.938.857 1.08a1.129 1.129 0 0 0 1.257-.536l30.527-51.894c.162-.295.21-.637.098-.934a1.095 1.095 0 0 0-.655-.69l-32.445-13.329a.884.884 0 0 0-.409-.095Zm2.921 62.383-1.759-59.522 29.607 12.161-27.848 47.361Z"/><path d="m350.927 135.976-60.222-.576c-.41-.004-.777.22-.984.56-.208.34-.212.796-.009 1.14l29.696 52.471c.404.711 1.566.722 1.982.019l30.526-51.894c.208-.34.211-.796.009-1.14a1.14 1.14 0 0 0-.998-.58Zm-58.259 1.722 56.26.539-28.518 48.494-27.742-49.033Z"/><path d="M261.032 82.927c-.091-.001-.182-.002-.251.02a1.14 1.14 0 0 0-.873 1.04l-2.772 39.143c-.027.501.243.96.697 1.146l32.445 13.329c.454.187.956.055 1.278-.307.322-.361.372-.885.124-1.321l-29.673-52.471a1.104 1.104 0 0 0-.975-.58Zm-1.567 39.541 2.439-34.563 26.214 46.328-28.653-11.765ZM231.753-21.751a1.132 1.132 0 0 0-.754.266l-60.638 51.63c-.366.292-.484.792-.351 1.227.156.435.563.758 1.019.785l78.234 4.26c.364.026.73-.153.96-.447a1.15 1.15 0 0 0 .191-1.047l-17.597-55.866a1.166 1.166 0 0 0-.768-.76c-.091-.047-.182-.047-.296-.048Zm-57.723 51.77 57.152-48.652 16.596 52.665-73.748-4.012Z"/><path d="m231.752-21.749-90.311-.864a1.136 1.136 0 0 0-.993 1.7l29.696 52.471c.158.298.452.506.793.555.342.049.684-.039.936-.264l60.638-51.607a1.14 1.14 0 0 0 .329-1.25 1.198 1.198 0 0 0-1.088-.74Zm-88.37 1.434 85.3.817-57.266 48.743-28.034-49.56Z"/><path d="M231.753-21.752a1.11 1.11 0 0 0-.915.47 1.174 1.174 0 0 0-.168 1.024l17.597 55.867c.155.48.585.826 1.132.808a1.115 1.115 0 0 0 1.055-.879l12.492-55.578a1.12 1.12 0 0 0-.22-.96 1.158 1.158 0 0 0-.885-.441l-30.088-.311Zm17.417 52.627L233.306-19.48l27.128.26-11.264 50.095Zm9.118 91.328a.385.385 0 0 0-.16.021L170.151 134.4a1.144 1.144 0 0 0-.917.744c-.14.386-.053.843.218 1.164l53.583 59.267c.248.276.634.416.999.374.365-.042.709-.29.871-.63l34.395-71.442a1.128 1.128 0 0 0-.105-1.164c-.225-.321-.566-.507-.907-.51Zm-85.716 14.158 83.736-11.578-32.75 67.992-50.986-56.414Z"/><path d="M223.868 193.648a1.073 1.073 0 0 0-.731.266l-54.413 45.123a1.15 1.15 0 0 0-.351 1.25c.155.458.586.758 1.064.763l60.223.577c.319.003.639-.131.868-.38.207-.249.324-.567.281-.909l-5.81-45.699c-.042-.411-.335-.756-.721-.919a1.09 1.09 0 0 0-.41-.072ZM172.576 238.8l50.423-41.809 5.38 42.343-55.803-.534Z"/><path d="M258.286 122.207a1.122 1.122 0 0 0-1.031.651L222.861 194.3c-.186.386-.144.843.127 1.187.248.345.679.508 1.112.444l36.337-6.218c.57-.086.961-.584.943-1.154l-1.919-65.223c-.018-.525-.379-.984-.902-1.081-.137-.024-.205-.047-.273-.048Zm-32.433 71.096 31.407-65.246 1.758 59.568-33.165 5.678Z"/><path d="M139.778 186.298a1.144 1.144 0 0 0-.96.515 1.163 1.163 0 0 0-.033 1.185l29.697 52.472c.157.298.451.506.793.555.341.071.66-.04.935-.242l54.413-45.123c.367-.293.508-.77.352-1.228a1.159 1.159 0 0 0-.996-.807l-84.109-7.372c-.046.046-.069.045-.092.045Zm29.998 51.859-27.967-49.4 79.192 6.937-51.225 42.463Z"/><path d="M260.203 187.451a.626.626 0 0 0-.205.021l-36.336 6.218a1.159 1.159 0 0 0-.944 1.268l5.81 45.699c.064.479.425.87.903.966.478.096.958-.127 1.212-.535l30.526-51.895a1.146 1.146 0 0 0-.036-1.232 1.092 1.092 0 0 0-.93-.51Zm-35.077 8.282 32.824-5.613-27.594 46.907-5.23-41.294Z"/><path d="m170.307 134.379-.114-.001a1.147 1.147 0 0 0-.87.562l-30.526 51.894c-.208.34-.211.751-.032 1.094.18.344.52.575.906.625l84.11 7.371c.5.051.912-.219 1.121-.627a1.15 1.15 0 0 0-.172-1.279l-53.583-59.266a1.237 1.237 0 0 0-.84-.373Zm-28.637 52.073 28.818-49.016 50.602 55.977-79.42-6.961Zm-152.012-53.799a1.086 1.086 0 0 0-.938.492 1.189 1.189 0 0 0-.122 1.071l29.52 74.493c.157.389.52.666.93.716.409.049.82-.129 1.074-.491l50.88-73.564c.23-.34.28-.796.078-1.162-.202-.367-.587-.622-.997-.626l-80.425-.929Zm29.782 73.242-28.115-70.946 76.576.87-48.461 70.076Z"/><path d="M19.18 207.146a1.07 1.07 0 0 0-.8.335l-30.351 29.895c-.322.316-.44.817-.26 1.229.178.435.586.712 1.041.716l60.223.577c.456.004.868-.265 1.053-.697a1.082 1.082 0 0 0-.24-1.233l-29.871-30.472a1.07 1.07 0 0 0-.795-.35Zm-27.618 29.922 27.573-27.163 27.137 27.687-54.71-.524Z"/><path d="M70.06 133.582a1.115 1.115 0 0 0-.938.493L18.24 207.639c-.277.407-.258.955.035 1.345.293.391.815.555 1.295.377l60.398-21.422c.525-.178.848-.722.739-1.27l-9.494-52.141a1.148 1.148 0 0 0-.881-.921c-.114-.023-.205-.024-.273-.025Zm-47.957 72.452 47.31-68.4 8.839 48.487-56.149 19.913Z"/><path d="M-40.868 184.57c-.319-.003-.662.13-.869.402a1.099 1.099 0 0 0-.124 1.298l29.696 52.471c.18.298.474.529.838.578.365.049.707-.061.96-.31l30.351-29.895c.275-.271.392-.657.304-1.046a1.158 1.158 0 0 0-.722-.828l-60.047-22.576a.808.808 0 0 0-.387-.094Zm29.952 51.767-27.404-48.46 55.437 20.845-28.033 27.615Z"/><path d="M79.555 185.724a1.058 1.058 0 0 0-.388.064l-60.398 21.423a1.151 1.151 0 0 0-.735.814 1.11 1.11 0 0 0 .288 1.051l29.87 30.472c.25.254.59.371.955.329.342-.043.662-.245.847-.562l30.527-51.895a1.1 1.1 0 0 0-.104-1.3 1.106 1.106 0 0 0-.862-.396Zm-58.338 23.038 55.76-19.78-28.17 47.928-27.59-28.148Z"/><path d="M-10.34 132.654a1.1 1.1 0 0 0-.984.561l-30.526 51.894c-.162.295-.21.637-.1.957.112.32.36.573.679.69l60.047 22.576c.432.164.888.055 1.21-.262.321-.316.416-.794.237-1.228l-29.52-74.494a1.116 1.116 0 0 0-.975-.716c-.022.023-.045.022-.068.022Zm-28.868 52.458 28.656-48.721L17.16 206.33l-56.368-21.218Zm178.984 1.022-60.223-.576a1.094 1.094 0 0 0-1.03.651c-.185.409-.12.888.15 1.21l59.28 70.378c.316.368.816.509 1.25.331.457-.155.757-.585.761-1.064l.942-69.756a1.069 1.069 0 0 0-.336-.801 1.093 1.093 0 0 0-.794-.373Zm-57.758 1.727 56.601.542-.863 65.607-55.738-66.149Z"/><path d="M138.835 255.937a1.153 1.153 0 0 0-.823.334l-88.189 87.502a1.147 1.147 0 0 0-.103 1.504c.36.459.998.579 1.478.287L139.5 292.65c.343-.202.551-.588.554-.975l-.089-34.587a1.142 1.142 0 0 0-.698-1.056 1.337 1.337 0 0 0-.432-.095Zm-80.726 82.831 79.602-78.966.093 31.213-79.695 47.753Z"/><path d="M139.78 186.137a1.331 1.331 0 0 0-.297.043 1.12 1.12 0 0 0-.851 1.086l-.92 69.802c-.003.41.199.777.562.986.34.208.795.213 1.139.011l30.616-17.331c.549-.314.736-.996.422-1.546l-29.696-52.471a1.183 1.183 0 0 0-.975-.58Zm.225 68.992.848-63.601 27.045 47.818-27.893 15.783Z"/><path d="M49.033 237.479a1.073 1.073 0 0 0-.731.267 1.132 1.132 0 0 0-.417.885l1.594 105.962c-.004.456.29.87.72 1.033.41.164.911.077 1.233-.239l88.212-87.501c.298-.294.416-.726.282-1.138a1.081 1.081 0 0 0-.859-.783l-89.806-18.484-.228-.002Zm2.7 104.4-1.536-101.858 86.327 17.766-84.79 84.092Z"/><path d="M169.476 238.631a1.028 1.028 0 0 0-.571.154l-30.616 17.33a1.137 1.137 0 0 0-.577.998l.089 34.564c-.004.525.357.961.834 1.103.5.141 1.026-.082 1.28-.513l30.526-51.894a1.14 1.14 0 0 0-.171-1.37 1.048 1.048 0 0 0-.794-.372Zm-29.492 19.119 26.337-14.909-26.254 44.663-.083-29.754Z"/><path d="m79.56 185.559-.114-.001a1.19 1.19 0 0 0-.893.561l-30.526 51.895a1.135 1.135 0 0 0-.054 1.048c.157.344.45.575.815.646l89.806 18.484c.478.096.958-.128 1.212-.536a1.136 1.136 0 0 0-.104-1.323l-59.28-70.378a1.186 1.186 0 0 0-.862-.396Zm-28.73 52.254 28.887-49.129 56.144 66.632-85.031-17.503Z"/></g></svg>