<svg width="40" height="40" fill="none" xmlns="http://www.w3.org/2000/svg"><path d="M14.158 7.688c-1.886.073-3.589.746-4.5 1.657a1.083 1.083 0 1 1-1.532-1.532c1.405-1.406 3.693-2.202 5.947-2.29 2.27-.088 4.748.533 6.483 2.268a1.083 1.083 0 0 1-1.532 1.532c-1.182-1.182-2.995-1.708-4.866-1.635Z" fill="#D64C00"/><path fillRule="evenodd" clipRule="evenodd" d="M25.195 23.468a14.028 14.028 0 0 0 3.32-9.083C28.515 6.607 22.209.302 14.43.302S.348 6.607.348 14.385c0 7.778 6.305 14.084 14.083 14.084a14.03 14.03 0 0 0 9.083-3.32l-.416 2.393 8.14 8.14 4.49-4.49-8.14-8.14-2.393.416Zm-10.764 1.75c5.983 0 10.834-4.85 10.834-10.833 0-5.983-4.85-10.833-10.834-10.833-5.983 0-10.833 4.85-10.833 10.833 0 5.984 4.85 10.834 10.833 10.834Z" fill="#D64C00"/><path d="m32.77 37.215 4.49-4.49 1.468 1.47a2.117 2.117 0 0 1 0 2.992l-1.497 1.497a2.116 2.116 0 0 1-2.993 0l-1.468-1.469Z" fill="#D64C00"/></svg>